<svg width="282" height="110" viewBox="0 0 282 110" fill="none" xmlns="http://www.w3.org/2000/svg">
    <path d="M0 0H282V57.4401C282 83.6121 261.835 105.346 235.705 106.822C207.899 108.393 172.565 110 144.367 110C115.216 110 76.5562 108.283 46.5798 106.663C20.3383 105.245 0 83.4586 0 57.1789V0Z" fill="white"/>
    <path d="M0 0H282V57.4401C282 83.6121 261.835 105.346 235.705 106.822C207.899 108.393 172.565 110 144.367 110C115.216 110 76.5562 108.283 46.5798 106.663C20.3383 105.245 0 83.4586 0 57.1789V0Z" fill="white"/>
</svg>
